<?xml version="1.0" encoding="UTF-8"?>
<svg id="_Слой_2" data-name="Слой 2" xmlns="http://www.w3.org/2000/svg" viewBox="0 0 590.52 146.97">
  <defs>
    <style>
      .cls-1 {
        fill: #e02f89;
      }

      .cls-2 {
        fill: #f3e729;
      }

      .cls-3 {
        fill: #24aee5;
      }
    </style>
  </defs>
  <g id="_Слой_1-2" data-name="Слой 1">
    <g>
      <g>
        <path d="M146.97,73.48c0,40.59-32.9,73.49-73.49,73.49-5.41,0-10.68-.58-15.75-1.7l87.46-87.93c1.17,5.19,1.78,10.59,1.78,16.14Z"/>
        <path class="cls-2" d="M145.19,57.34l-87.46,87.93c-14.11-3.07-26.7-10.21-36.5-20.11L124.87,20.96c9.96,9.74,17.16,22.29,20.32,36.38Z"/>
        <path class="cls-1" d="M124.87,20.96L21.23,125.16c-9.17-9.28-15.9-21.01-19.11-34.11L90.67,2.02c13.12,3.15,24.87,9.81,34.2,18.94Z"/>
        <path class="cls-3" d="M90.67,2.02L2.12,91.05c-1.39-5.63-2.12-11.52-2.12-17.57C0,32.9,32.9,0,73.48,0c5.92,0,11.67.7,17.19,2.02Z"/>
      </g>
      <g>
        <path d="M181.18,102.07h12.29c7.25,0,11.92,3.73,11.92,10.16,0,6.76-5.2,10.32-12.33,10.32h-3.93v8.19h-7.95v-28.67ZM192.9,116.32c2.83,0,4.55-1.47,4.55-3.81,0-2.46-1.72-3.77-4.59-3.77h-3.73v7.58h3.77Z"/>
        <path d="M226.76,102.07h7.95v21.71h13.88v6.96h-21.83v-28.67Z"/>
        <path d="M268.82,118.16v-16.1h8.07v15.93c0,4.14,2.09,6.1,5.28,6.1s5.28-1.88,5.28-5.9v-16.14h8.07v15.89c0,9.26-5.28,13.31-13.43,13.31s-13.27-4.14-13.27-13.11Z"/>
        <path d="M316.09,126.48l4.42-5.28c2.83,2.25,5.98,3.44,9.3,3.44,2.13,0,3.28-.74,3.28-2.05,0-1.19-.94-1.84-4.83-2.74-6.1-1.39-10.81-3.11-10.81-9.09,0-5.32,4.22-9.17,11.1-9.17,4.87,0,8.68,1.31,11.79,3.81l-3.97,5.61c-2.62-1.84-5.49-2.83-8.03-2.83-1.92,0-2.87.82-2.87,1.92,0,1.31.98,1.88,4.96,2.79,6.59,1.43,10.69,3.56,10.69,9.01,0,5.86-4.63,9.34-11.59,9.34-5.08,0-9.91-1.6-13.43-4.75Z"/>
        <path d="M392.34,102.07h12.29c7.25,0,11.92,3.73,11.92,10.16,0,6.76-5.2,10.32-12.33,10.32h-3.93v8.19h-7.95v-28.67ZM404.05,116.32c2.83,0,4.55-1.47,4.55-3.81,0-2.46-1.72-3.77-4.59-3.77h-3.73v7.58h3.77Z"/>
        <path d="M437.92,102.07h13.56c4.38,0,7.41,1.15,9.34,3.07,1.68,1.68,2.54,3.89,2.54,6.8,0,4.38-2.33,7.29-5.9,8.81l6.84,9.99h-9.17l-5.77-8.68h-3.48v8.68h-7.95v-28.67ZM451.11,115.83c2.7,0,4.26-1.31,4.26-3.48s-1.64-3.4-4.3-3.4h-5.2v6.88h5.24Z"/>
        <path d="M485.55,102.07h7.99v28.67h-7.99v-28.67Z"/>
        <path d="M516.8,102.07h7.41l11.79,15.15v-15.15h7.86v28.67h-6.96l-12.25-15.73v15.73h-7.86v-28.67Z"/>
        <path d="M573.97,109.03h-8.6v-6.96h25.15v6.96h-8.6v21.71h-7.95v-21.71Z"/>
      </g>
      <g>
        <path d="M170.33,52.75c0-19.96,15.66-35.62,36.89-35.62,12.04,0,20.55,3.72,27.79,9.98l-11.15,13.41c-4.89-4.11-9.78-6.46-16.54-6.46-9.88,0-17.52,8.32-17.52,18.98s7.73,18.98,18.59,18.98c4.6,0,8.12-.98,10.96-2.84v-8.32h-13.5v-13.9h31.51v30.82c-7.24,5.97-17.32,10.57-29.75,10.57-21.33,0-37.28-14.68-37.28-35.62Z"/>
        <path d="M247.09,56.95V18.5h19.28v38.07c0,9.88,4.99,14.58,12.62,14.58s12.62-4.5,12.62-14.09V18.5h19.28v37.97c0,22.12-12.62,31.8-32.1,31.8s-31.7-9.88-31.7-31.31Z"/>
        <path d="M322.19,18.5h17.71l28.18,36.21V18.5h18.79v68.5h-16.64l-29.26-37.58v37.58h-18.79V18.5Z"/>
        <path d="M399.04,18.5h55.09v16.15h-36.3v10.37h32.88v14.97h-32.88v10.86h36.79v16.15h-55.58V18.5Z"/>
        <path d="M459.16,76.82l10.57-12.62c6.75,5.38,14.29,8.22,22.21,8.22,5.08,0,7.82-1.76,7.82-4.89,0-2.84-2.25-4.4-11.55-6.56-14.58-3.33-25.83-7.43-25.83-21.72,0-12.72,10.08-21.92,26.52-21.92,11.64,0,20.75,3.13,28.18,9.1l-9.49,13.41c-6.26-4.4-13.11-6.75-19.18-6.75-4.61,0-6.85,1.96-6.85,4.6,0,3.13,2.35,4.5,11.84,6.66,15.75,3.42,25.54,8.51,25.54,21.52,0,14-11.05,22.31-27.69,22.31-12.13,0-23.68-3.82-32.09-11.35Z"/>
        <path d="M528.18,18.5h18.99v25.64h24.37v-25.64h18.99v68.5h-18.99v-26.03h-24.37v26.03h-18.99V18.5Z"/>
      </g>
    </g>
  </g>
</svg>